<?xml version="1.0" encoding="UTF-8" standalone="no"?>
<svg
   xmlns:dc="http://purl.org/dc/elements/1.1/"
   xmlns:cc="http://creativecommons.org/ns#"
   xmlns:rdf="http://www.w3.org/1999/02/22-rdf-syntax-ns#"
   xmlns:svg="http://www.w3.org/2000/svg"
   xmlns="http://www.w3.org/2000/svg"
   xmlns:sodipodi="http://sodipodi.sourceforge.net/DTD/sodipodi-0.dtd"
   xmlns:inkscape="http://www.inkscape.org/namespaces/inkscape"
   width="123.05"
   height="123.05"
   version="1.1"
   id="svg4"
   sodipodi:docname="cross-sign-icon.svg"
   inkscape:version="0.92.3 (2405546, 2018-03-11)">
  <metadata
     id="metadata10">
    <rdf:RDF>
      <cc:Work
         rdf:about="">
        <dc:format>image/svg+xml</dc:format>
        <dc:type
           rdf:resource="http://purl.org/dc/dcmitype/StillImage" />
      </cc:Work>
    </rdf:RDF>
  </metadata>
  <defs
     id="defs8" />
  <sodipodi:namedview
     pagecolor="#ffffff"
     bordercolor="#666666"
     borderopacity="1"
     objecttolerance="10"
     gridtolerance="10"
     guidetolerance="10"
     inkscape:pageopacity="0"
     inkscape:pageshadow="2"
     inkscape:window-width="1920"
     inkscape:window-height="1013"
     id="namedview6"
     showgrid="false"
     inkscape:zoom="1.9179195"
     inkscape:cx="61.525002"
     inkscape:cy="61.525002"
     inkscape:window-x="-9"
     inkscape:window-y="-9"
     inkscape:window-maximized="1"
     inkscape:current-layer="svg4" />
  <path
     fill="#b3b3b3"
     d="M121.33 10.93l-8.5-8.4a6.1 6.1 0 00-8.5 0l-42.4 42.4-43.2-43.2a6.1 6.1 0 00-8.5 0l-8.5 8.5a6.1 6.1 0 000 8.5l43.1 43.1-42.3 42.5a6.1 6.1 0 000 8.5l8.5 8.5a6.1 6.1 0 008.5 0l42.4-42.4 42.4 42.4a6.1 6.1 0 008.5 0l8.5-8.5a6.1 6.1 0 000-8.5l-42.5-42.4 42.4-42.4c2.4-2.4 2.4-6.2.1-8.6z"
     id="path2"
     style="fill:#973a04;fill-opacity:1" />
</svg>
